<?xml version="1.0" encoding="UTF-8"?>
<svg width="141px" height="100px" viewBox="0 0 141 100" version="1.1" xmlns="http://www.w3.org/2000/svg" xmlns:xlink="http://www.w3.org/1999/xlink">
    <g id="Symbols" stroke="none" stroke-width="1" fill="none" fill-rule="evenodd">
        <g id="::-Header" transform="translate(-370.000000, -10.000000)">
            <g id="NEW">
                <g id="::-Header--2" transform="translate(0.000000, 10.000000)">
                    <g id="logo" transform="translate(370.000000, 0.000000)">
                        <g id="Group-3" fill="#EB5A2D">
                            <path d="M75.1356908,1.11161672 C72.2321385,-0.32997622 68.7666083,-0.32997622 65.863056,1.11161672 L5.75914912,30.9505749 C2.20669974,32.713932 0,36.2660289 0,40.2205177 L0,89.1183152 C0,94.829442 4.66366695,99.475985 10.3958411,99.475985 L130.602906,99.475985 C136.33508,99.475985 140.998747,94.829442 140.998747,89.1183152 L140.998747,40.2205177 C140.998747,36.2660289 138.792047,32.713932 135.239598,30.9505749 L75.1356908,1.11161672 Z" id="Fill-1"></path>
                        </g>
                        <polyline id="Fill-4" fill="#FFFFFE" points="29.1546621 52.2698756 28.616662 54.2878071 28.2577455 52.2698756 24.487998 41.5643123 20.8209051 41.5643123 22.692666 46.5975694 20.4365123 52.2698756 19.8977628 54.2878071 19.5388463 52.2698756 15.7698481 41.5643123 11.6666604 41.5643123 13.3331121 44.7326812 18.4366204 58.4520771 20.7699525 58.9634656 24.1545578 50.5065185 27.1547703 58.4520771 29.4881023 58.9634656 36.3352406 41.5643123 33.1297189 41.5643123 29.1546621 52.2698756"></polyline>
                        <polyline id="Fill-5" fill="#FFFFFE" points="38.82218 58.6312497 47.9764247 58.6312497 48.6178287 56.1019297 42.1558326 56.1019297 42.1558326 51.1455675 46.9251514 51.1455675 47.5658062 48.6162475 42.1558326 48.6162475 42.1558326 44.0943788 48.2843885 44.0943788 48.2843885 41.5643123 38.4632634 41.5643123 38.82218 44.1959099 38.82218 58.6312497"></polyline>
                        <polyline id="Fill-6" fill="#FFFFFE" points="62.1569994 58.6312497 62.7976541 56.0504176 56.259229 56.0504176 56.259229 41.5643123 52.5666598 41.5643123 52.9255764 44.1959099 52.9255764 58.6312497 62.1569994 58.6312497"></polyline>
                        <path d="M77.1063598,53.9555912 C75.6189917,55.5397757 73.6700525,56.3572507 71.9264225,56.3572507 C69.1569956,56.3572507 66.592878,54.1855294 66.592878,50.200432 C66.592878,46.776742 68.7726028,43.7875457 71.6701606,43.7875457 C73.1822557,43.7875457 74.7213257,44.3750826 76.1569919,45.8316065 L77.516229,43.3784349 C75.8752536,41.9226575 73.9517907,41.2582257 71.643935,41.2582257 C66.8491399,41.2582257 63.1310943,45.0648971 63.1310943,50.4557529 C63.1310943,56.1019297 67.2080564,58.9634656 71.439375,58.9634656 C73.6183505,58.9634656 76.1060392,58.0690957 77.7215382,56.5871889 L77.1063598,53.9555912" id="Fill-7" fill="#FFFFFE"></path>
                        <path d="M87.0039139,56.4849112 C84.2854396,56.4849112 82.4653807,53.7771652 82.4653807,50.1235371 C82.4653807,46.469909 84.2854396,43.7621629 87.0039139,43.7621629 C89.7216388,43.7621629 91.5169708,46.469909 91.5169708,50.1235371 C91.5169708,53.7771652 89.7216388,56.4849112 87.0039139,56.4849112 Z M87.1320448,41.3089913 C82.4653807,41.3089913 78.9264188,45.1925576 78.9264188,50.2765803 C78.9264188,55.1567942 81.7722746,58.9634656 86.7986046,58.9634656 C91.4652688,58.9634656 95.0559327,55.0798993 95.0559327,49.9704938 C95.0559327,44.9118538 92.4146367,41.3089913 87.1320448,41.3089913 L87.1320448,41.3089913 Z" id="Fill-8" fill="#FFFFFE"></path>
                        <polyline id="Fill-9" fill="#FFFFFE" points="115.810899 41.5643123 113.580222 41.5643123 107.041047 51.7077215 99.8874437 41.5643123 97.2461477 41.5643123 97.6050643 44.1959099 97.6050643 58.6312497 100.836062 58.6312497 100.553575 56.4341456 100.553575 48.0540934 101.400288 49.7144263 106.759309 57.0470652 111.733937 49.7144263 112.477996 48.0794762 112.477996 58.6312497 116.093387 58.6312497 115.810899 56.4341456 115.810899 41.5643123"></polyline>
                        <polyline id="Fill-10" fill="#FFFFFE" points="122.87009 51.1455675 127.639409 51.1455675 128.280813 48.6162475 122.87009 48.6162475 122.87009 44.0943788 128.998646 44.0943788 128.998646 41.5643123 119.177521 41.5643123 119.536438 44.1959099 119.536438 58.6312497 128.690682 58.6312497 129.332086 56.1019297 122.87009 56.1019297 122.87009 51.1455675"></polyline>
                        <path d="M62.9197907,79.1614444 C60.2013164,79.1614444 58.3812574,76.4529518 58.3812574,72.7993237 C58.3812574,69.1456956 60.2013164,66.4379496 62.9197907,66.4379496 C65.6382649,66.4379496 67.4328475,69.1456956 67.4328475,72.7993237 C67.4328475,76.4529518 65.6382649,79.1614444 62.9197907,79.1614444 Z M63.0479216,63.9855245 C58.3812574,63.9855245 54.8422955,67.8690908 54.8422955,72.9531135 C54.8422955,77.8325809 57.6889007,81.6392522 62.7144814,81.6392522 C67.3811456,81.6392522 70.9718095,77.755686 70.9718095,72.6462804 C70.9718095,67.5876405 68.3305135,63.9855245 63.0479216,63.9855245 L63.0479216,63.9855245 Z" id="Fill-11" fill="#FFFFFE"></path>
                        <polyline id="Fill-12" fill="#FFFFFE" points="92.7158569 64.2408455 90.4851794 64.2408455 83.946005 74.3835082 76.7916522 64.2408455 74.1511055 64.2408455 74.5100221 66.8724431 74.5100221 81.3070364 77.7410201 81.3070364 77.4585326 79.1099322 77.4585326 70.7298801 78.3052459 72.3909595 83.6642668 79.7228519 88.6388948 72.3909595 89.3829535 70.7560094 89.3829535 81.3070364 92.9983444 81.3070364 92.7158569 79.1099322 92.7158569 64.2408455"></polyline>
                        <polyline id="Fill-13" fill="#FFFFFE" points="101.511934 73.8213541 106.281253 73.8213541 106.921908 71.2920341 101.511934 71.2920341 101.511934 66.7701654 107.64049 66.7701654 107.64049 64.2408455 97.8193651 64.2408455 98.1782817 66.8724431 98.1782817 81.3070364 107.332526 81.3070364 107.97393 78.7777164 101.511934 78.7777164 101.511934 73.8213541"></polyline>
                        <polyline id="Fill-14" fill="#FFFFFE" points="51.5858212 64.2408455 47.8932519 64.2408455 48.2521685 66.8724431 48.2521685 71.6727759 44.2051786 69.6294616 40.2518516 71.6257431 40.2518516 64.2408455 36.5592824 64.2408455 36.918199 66.8724431 36.918199 81.3070364 40.5335899 81.3070364 40.2518516 79.1099322 40.2518516 74.7918724 44.2051786 72.7955909 48.2521685 74.8389052 48.2521685 81.3070364 51.8675594 81.3070364 51.5858212 79.1099322 51.5858212 64.2408455"></polyline>
                    </g>
                </g>
            </g>
        </g>
    </g>
</svg>