<?xml version="1.0" encoding="utf-8"?><svg width="293" height="579" viewBox="0 0 293 579" xmlns="http://www.w3.org/2000/svg" xmlns:xlink="http://www.w3.org/1999/xlink"><svg width="11.44" height="18" viewBox="0 0 11.44 18" id="arrow-black" xmlns="http://www.w3.org/2000/svg"><path fill="none" stroke="#333" stroke-linecap="round" stroke-miterlimit="50" stroke-width="2" d="M1.22 1l8.27 7.86L1.22 17"/></svg><svg width="22" height="20" viewBox="0 0 22 20" id="arrow-right" y="18" xmlns="http://www.w3.org/2000/svg"><title>arr</title><g transform="translate(1 1.429)" stroke="#EB5A2D" stroke-width="2" fill="none" fill-rule="evenodd" stroke-linecap="round" stroke-linejoin="round"><path d="M11.429.49l8.08 8.081-8.08 8.082M19.299 8.571H0"/></g></svg><svg width="29" height="26" viewBox="0 0 29 26" id="arrow_down_double" y="38" xmlns="http://www.w3.org/2000/svg"><title>Group 13</title><g transform="translate(1 2)" stroke="#DFDAD0" stroke-width="3" fill="none" fill-rule="evenodd" stroke-linecap="round"><path d="M.648 0l10.86 11.488a2 2 0 0 0 2.883.025L25.648 0"/><path d="M.648 10l10.86 11.488a2 2 0 0 0 2.883.025L25.648 10"/></g></svg><svg viewBox="0 0 50 50" width="50" height="50" id="call-back" y="64" xmlns="http://www.w3.org/2000/svg"><g transform="translate(47 27)"><circle fill="#0D0F0F" cx="-22" cy="-2" r="25"/><circle fill="#eb5a2d" cx="-22" cy="-2" r="25"/><g transform="translate(13 13)"><path fill="none" d="M-47-27h24v24h-24z"/><path fill="#FFF" d="M-40.4-16.2c1.4 2.8 3.8 5.1 6.6 6.6l2.2-2.2c.3-.3.7-.4 1-.2 1.1.4 2.3.6 3.6.6.5 0 1 .4 1 1V-7c0 .5-.5 1-1 1-9.4 0-17-7.6-17-17 0-.5.5-1 1-1h3.5c.5 0 1 .5 1 1 0 1.3.2 2.5.6 3.6.1.4 0 .7-.3 1l-2.2 2.2z"/></g></g></svg><svg width="15" height="16" viewBox="0 0 15 16" id="cheked" y="114" xmlns="http://www.w3.org/2000/svg"><path fill="none" stroke="#eb5a2d" stroke-linecap="square" stroke-miterlimit="50" stroke-width="3" d="M2.2 10.14l2.42 2.44m1 1l7.5-11.5"/></svg><svg width="293" height="335" viewBox="0 0 293 335" id="footer-logo" y="130" xmlns="http://www.w3.org/2000/svg"><path fill="#eb5a2d" d="M155.8 2.17a22.41 22.41 0 0 0-19.23 0L11.94 62.03C4.58 65.57 0 72.69 0 80.62v254.32h292.38V80.62c0-7.93-4.58-15.05-11.94-18.59z"/><path fill="#fffffe" d="M60.26 104.41l-1.11 4.04-.75-4.04L50.59 83h-7.61l3.88 10.07-4.67 11.34-1.12 4.04-.75-4.04L32.51 83H24l3.46 6.34 10.58 27.44 4.84 1.02 7.02-16.91 6.22 15.89 4.83 1.02L75.15 83h-6.64l-8.25 21.41m20.48 12.73h18.99l1.33-5.06h-13.4v-9.92h9.89l1.33-5.06H87.66v-9.04h12.71V83H80l.74 5.26v28.88m48.15 0l1.33-5.17h-13.56V83H109l.74 5.26v28.88h19.15m31.09-9.74c-3.08 3.16-7.13 4.8-10.74 4.8-5.74 0-11.06-4.34-11.06-12.31 0-6.85 4.52-12.83 10.53-12.83 3.13 0 6.32 1.17 9.3 4.09l2.82-4.91c-3.4-2.91-7.39-4.24-12.18-4.24-9.94 0-17.65 7.61-17.65 18.4 0 11.29 8.45 17.01 17.23 17.01 4.52 0 9.68-1.79 13.03-4.75l-1.28-5.26m20.77 4.95c-5.64 0-9.41-5.41-9.41-12.72 0-7.31 3.77-12.72 9.41-12.72 5.64 0 9.36 5.41 9.36 12.72 0 7.31-3.72 12.72-9.36 12.72zM164 99.94c0 9.76 5.9 17.37 16.32 17.37 9.68 0 17.13-7.77 17.13-17.99 0-10.11-5.48-17.32-16.43-17.32-9.68 0-17.02 7.77-17.02 17.94zM240.5 83h-4.63l-13.56 20.29L207.48 83H202l.74 5.26v28.88h6.7l-.58-4.4V95.98l1.75 3.32 11.12 14.67 10.31-14.67 1.55-3.27v21.11h7.49l-.58-4.4V83m14.16 19.16h9.89l1.33-5.06h-11.22v-9.04h12.71V83H247l.74 5.26v28.88h18.99l1.33-5.06h-13.4v-9.92m-123.91 56.19c-5.64 0-9.41-5.41-9.41-12.72 0-7.31 3.77-12.72 9.41-12.72 5.64 0 9.36 5.41 9.36 12.72 0 7.31-3.72 12.72-9.36 12.72zM114 145.94c0 9.76 5.9 17.37 16.32 17.37 9.68 0 17.13-7.77 17.13-17.99 0-10.12-5.48-17.32-16.43-17.32-9.68 0-17.02 7.77-17.02 17.94zM192.5 128h-4.63l-13.56 20.29L159.48 128H154l.74 5.26v28.87h6.7l-.58-4.39v-16.76l1.75 3.32 11.12 14.67 10.31-14.67 1.55-3.27v21.1h7.49l-.58-4.39V128m18.16 19.16h9.89l1.33-5.06h-11.22v-9.04h12.71V128H203l.74 5.26v28.87h18.99l1.33-5.06h-13.4v-9.91M107.16 128H99.5l.75 5.26v9.6l-8.4-4.08-8.19 3.99V128H76l.74 5.26v28.87h7.5l-.58-4.39v-8.64l8.19-3.99 8.4 4.09v12.93h7.49l-.58-4.39V128"/></svg><svg width="141" height="100" viewBox="0 0 141 100" id="logo" y="465" xmlns="http://www.w3.org/2000/svg"><g fill="none" fill-rule="evenodd"><path d="M75.136 1.112a10.481 10.481 0 0 0-9.273 0L5.76 30.95C2.207 32.714 0 36.266 0 40.22v48.897c0 5.711 4.664 10.358 10.396 10.358h120.207c5.732 0 10.396-4.647 10.396-10.358V40.221c0-3.955-2.207-7.507-5.76-9.27L75.137 1.11z" fill="#EB5A2D"/><path fill="#FFFFFE" d="M29.155 52.27l-.538 2.018-.36-2.018-3.769-10.706h-3.667l1.872 5.034-2.256 5.672-.54 2.018-.358-2.018-3.77-10.706h-4.102l1.666 3.169 5.104 13.72 2.333.51 3.385-8.456 3 7.945 2.333.511 6.847-17.399H33.13L29.155 52.27M38.822 58.631h9.154l.642-2.53h-6.462v-4.955h4.77l.64-2.53h-5.41v-4.522h6.128v-2.53h-9.82l.358 2.632V58.63M62.157 58.631l.64-2.58H56.26V41.563h-3.692l.359 2.632V58.63h9.231M77.106 53.956c-1.487 1.584-3.436 2.401-5.18 2.401-2.769 0-5.333-2.171-5.333-6.157 0-3.423 2.18-6.412 5.077-6.412 1.512 0 3.051.587 4.487 2.044l1.36-2.454c-1.642-1.455-3.565-2.12-5.873-2.12-4.795 0-8.513 3.807-8.513 9.198 0 5.646 4.077 8.507 8.308 8.507 2.18 0 4.667-.894 6.283-2.376l-.616-2.631M87.004 56.485c-2.719 0-4.539-2.708-4.539-6.361 0-3.654 1.82-6.362 4.539-6.362 2.718 0 4.513 2.708 4.513 6.362 0 3.653-1.795 6.36-4.513 6.36zm.128-15.176c-4.667 0-8.206 3.884-8.206 8.968 0 4.88 2.846 8.686 7.873 8.686 4.666 0 8.257-3.883 8.257-8.993 0-5.058-2.641-8.661-7.924-8.661zM115.81 41.564h-2.23l-6.539 10.144-7.154-10.144h-2.64l.358 2.632V58.63h3.231l-.282-2.197v-8.38l.846 1.66 5.36 7.333 4.974-7.333.744-1.635v10.552h3.615l-.282-2.197v-14.87M122.87 51.146h4.77l.64-2.53h-5.41v-4.522H129v-2.53h-9.821l.358 2.632V58.63h9.155l.641-2.53h-6.462v-4.955M62.92 79.161c-2.719 0-4.539-2.708-4.539-6.362 0-3.653 1.82-6.361 4.539-6.361 2.718 0 4.513 2.708 4.513 6.361 0 3.654-1.795 6.362-4.513 6.362zm.128-15.175c-4.667 0-8.206 3.883-8.206 8.967 0 4.88 2.847 8.686 7.872 8.686 4.667 0 8.258-3.883 8.258-8.993 0-5.058-2.641-8.66-7.924-8.66zM92.716 64.24h-2.23l-6.54 10.144-7.154-10.143h-2.64l.358 2.631v14.435h3.231l-.282-2.197v-8.38l.846 1.661 5.36 7.332 4.974-7.332.744-1.635v10.551h3.615l-.282-2.197V64.24M101.512 73.821h4.77l.64-2.529h-5.41V66.77h6.128v-2.53h-9.82l.358 2.632v14.435h9.155l.64-2.53h-6.461v-4.956M51.586 64.24h-3.693l.36 2.632v4.8l-4.048-2.043-3.953 1.997V64.24h-3.693l.36 2.631v14.435h3.615l-.282-2.197v-4.318l3.953-1.996 4.047 2.043v6.468h3.616l-.282-2.197V64.24"/></g></svg><svg width="21" height="14" viewBox="0 0 21 14" id="metro_green" y="565" xmlns="http://www.w3.org/2000/svg"><path fill="#22b65d" d="M10.34 6.11L5.97 0 0 13.75h4.63l2.32-4.58 3.39 4.58 3.4-4.58 2.31 4.58h4.64L14.72 0z"/></svg></svg>