<?xml version="1.0" encoding="utf-8"?><svg xmlns="http://www.w3.org/2000/svg" xmlns:xlink="http://www.w3.org/1999/xlink"><symbol viewBox="0 0 11.44 18" id="arrow-black" xmlns="http://www.w3.org/2000/svg"><path fill="none" stroke="#333" stroke-linecap="round" stroke-miterlimit="50" stroke-width="2" d="M1.22 1l8.27 7.86L1.22 17"/></symbol><symbol viewBox="0 0 141 100" id="logo" xmlns="http://www.w3.org/2000/svg"><g fill="none" fill-rule="evenodd"><path d="M75.136 1.112a10.481 10.481 0 0 0-9.273 0L5.76 30.95C2.207 32.714 0 36.266 0 40.22v48.897c0 5.711 4.664 10.358 10.396 10.358h120.207c5.732 0 10.396-4.647 10.396-10.358V40.221c0-3.955-2.207-7.507-5.76-9.27L75.137 1.11z" fill="#EB5A2D"/><path fill="#FFFFFE" d="M29.155 52.27l-.538 2.018-.36-2.018-3.769-10.706h-3.667l1.872 5.034-2.256 5.672-.54 2.018-.358-2.018-3.77-10.706h-4.102l1.666 3.169 5.104 13.72 2.333.51 3.385-8.456 3 7.945 2.333.511 6.847-17.399H33.13L29.155 52.27M38.822 58.631h9.154l.642-2.53h-6.462v-4.955h4.77l.64-2.53h-5.41v-4.522h6.128v-2.53h-9.82l.358 2.632V58.63M62.157 58.631l.64-2.58H56.26V41.563h-3.692l.359 2.632V58.63h9.231M77.106 53.956c-1.487 1.584-3.436 2.401-5.18 2.401-2.769 0-5.333-2.171-5.333-6.157 0-3.423 2.18-6.412 5.077-6.412 1.512 0 3.051.587 4.487 2.044l1.36-2.454c-1.642-1.455-3.565-2.12-5.873-2.12-4.795 0-8.513 3.807-8.513 9.198 0 5.646 4.077 8.507 8.308 8.507 2.18 0 4.667-.894 6.283-2.376l-.616-2.631M87.004 56.485c-2.719 0-4.539-2.708-4.539-6.361 0-3.654 1.82-6.362 4.539-6.362 2.718 0 4.513 2.708 4.513 6.362 0 3.653-1.795 6.36-4.513 6.36zm.128-15.176c-4.667 0-8.206 3.884-8.206 8.968 0 4.88 2.846 8.686 7.873 8.686 4.666 0 8.257-3.883 8.257-8.993 0-5.058-2.641-8.661-7.924-8.661zM115.81 41.564h-2.23l-6.539 10.144-7.154-10.144h-2.64l.358 2.632V58.63h3.231l-.282-2.197v-8.38l.846 1.66 5.36 7.333 4.974-7.333.744-1.635v10.552h3.615l-.282-2.197v-14.87M122.87 51.146h4.77l.64-2.53h-5.41v-4.522H129v-2.53h-9.821l.358 2.632V58.63h9.155l.641-2.53h-6.462v-4.955M62.92 79.161c-2.719 0-4.539-2.708-4.539-6.362 0-3.653 1.82-6.361 4.539-6.361 2.718 0 4.513 2.708 4.513 6.361 0 3.654-1.795 6.362-4.513 6.362zm.128-15.175c-4.667 0-8.206 3.883-8.206 8.967 0 4.88 2.847 8.686 7.872 8.686 4.667 0 8.258-3.883 8.258-8.993 0-5.058-2.641-8.66-7.924-8.66zM92.716 64.24h-2.23l-6.54 10.144-7.154-10.143h-2.64l.358 2.631v14.435h3.231l-.282-2.197v-8.38l.846 1.661 5.36 7.332 4.974-7.332.744-1.635v10.551h3.615l-.282-2.197V64.24M101.512 73.821h4.77l.64-2.529h-5.41V66.77h6.128v-2.53h-9.82l.358 2.632v14.435h9.155l.64-2.53h-6.461v-4.956M51.586 64.24h-3.693l.36 2.632v4.8l-4.048-2.043-3.953 1.997V64.24h-3.693l.36 2.631v14.435h3.615l-.282-2.197v-4.318l3.953-1.996 4.047 2.043v6.468h3.616l-.282-2.197V64.24"/></g></symbol></svg>