<?xml version="1.0" encoding="UTF-8"?>
<svg width="29px" height="26px" viewBox="0 0 29 26" version="1.1" xmlns="http://www.w3.org/2000/svg" xmlns:xlink="http://www.w3.org/1999/xlink">
    <!-- Generator: Sketch 45 (43475) - http://www.bohemiancoding.com/sketch -->
    <title>Group 13</title>
    <desc>Created with Sketch.</desc>
    <defs></defs>
    <g id="WelcomeHome_landing" stroke="none" stroke-width="1" fill="none" fill-rule="evenodd" stroke-linecap="round">
        <g id="03_WelcomeHome_House" transform="translate(-1475.000000, -5209.000000)" stroke="#DFDAD0" stroke-width="3">
            <g id="//-Choose-Appartment" transform="translate(363.000000, 3713.000000)">
                <g id="Group-13" transform="translate(1113.000000, 1498.000000)">
                    <g id="Group-12" transform="translate(13.000000, 6.500000) rotate(-270.000000) translate(-13.000000, -6.500000) translate(6.500000, -6.500000)">
                        <path d="M0,0 L11.4882054,10.859125 L11.4882054,10.859125 C12.2909226,11.6178864 12.3265558,12.8837149 11.5677944,13.6864321 C11.5497741,13.7054964 11.5313803,13.7242044 11.512624,13.742545 L0,25" id="Path-2-Copy-2" transform="translate(6.111232, 12.675985) scale(-1, 1) rotate(-180.000000) translate(-6.111232, -12.675985) "></path>
                    </g>
                    <g id="Group-12-Copy" transform="translate(13.000000, 16.500000) rotate(-270.000000) translate(-13.000000, -16.500000) translate(6.500000, 3.500000)">
                        <path d="M0,0 L11.4882054,10.859125 L11.4882054,10.859125 C12.2909226,11.6178864 12.3265558,12.8837149 11.5677944,13.6864321 C11.5497741,13.7054964 11.5313803,13.7242044 11.512624,13.742545 L0,25" id="Path-2-Copy-2" transform="translate(6.111232, 12.675985) scale(-1, 1) rotate(-180.000000) translate(-6.111232, -12.675985) "></path>
                    </g>
                </g>
            </g>
        </g>
    </g>
</svg>