<?xml version="1.0" encoding="utf-8"?>
<!-- Generator: Adobe Illustrator 19.0.1, SVG Export Plug-In . SVG Version: 6.00 Build 0)  -->
<svg version="1.1" id="Слой_1" xmlns="http://www.w3.org/2000/svg" xmlns:xlink="http://www.w3.org/1999/xlink" x="0px" y="0px"
	 viewBox="0 0 50 50" enable-background="new 0 0 50 50" xml:space="preserve">
<g id="WelcomeHome_landing">
	<g id="_x30_3_x5F_WelcomeHome_x5F_House" transform="translate(-1466.000000, -1087.000000)">
		<g id="Group-19" transform="translate(354.000000, 171.000000)">
			<g id="Group-18">
				<g id="::-Call-BTN" transform="translate(1159.000000, 943.000000)">
					<g>
						<g id="Oval-4">
							<g>
								<circle id="path-1_12_" fill="#0D0F0F" cx="-22" cy="-2" r="25"/>
							</g>
							<g>
								<circle id="path-1_1_" fill="#eb5a2d" cx="-22" cy="-2" r="25"/>
							</g>
						</g>
						<g id="Icon-24px" transform="translate(13.000000, 13.000000)">
							<polygon id="Shape" fill="none" points="-47,-27 -23,-27 -23,-3 -47,-3 							"/>
							<path id="Shape_1_" fill="#FFFFFF" d="M-40.4-16.2c1.4,2.8,3.8,5.1,6.6,6.6l2.2-2.2c0.3-0.3,0.7-0.4,1-0.2
								c1.1,0.4,2.3,0.6,3.6,0.6c0.5,0,1,0.4,1,1V-7c0,0.5-0.5,1-1,1c-9.4,0-17-7.6-17-17c0-0.5,0.5-1,1-1h3.5c0.5,0,1,0.5,1,1
								c0,1.3,0.2,2.5,0.6,3.6c0.1,0.4,0,0.7-0.3,1L-40.4-16.2L-40.4-16.2z"/>
						</g>
					</g>
				</g>
			</g>
		</g>
	</g>
</g>
</svg>
