<svg xmlns="http://www.w3.org/2000/svg" width="293" height="335" viewBox="0 0 293 335"><path fill="#eb5a2d" d="M155.8 2.17a22.41 22.41 0 0 0-19.23 0L11.94 62.03C4.58 65.57 0 72.69 0 80.62v254.32h292.38V80.62c0-7.93-4.58-15.05-11.94-18.59z"/><path fill="#fffffe" d="M60.26 104.41l-1.11 4.04-.75-4.04L50.59 83h-7.61l3.88 10.07-4.67 11.34-1.12 4.04-.75-4.04L32.51 83H24l3.46 6.34 10.58 27.44 4.84 1.02 7.02-16.91 6.22 15.89 4.83 1.02L75.15 83h-6.64l-8.25 21.41M80.74 117.14h18.99l1.33-5.06h-13.4v-9.92h9.89l1.33-5.06H87.66v-9.04h12.71V83H80l.74 5.26v28.88M128.89 117.14l1.33-5.17h-13.56V83H109l.74 5.26v28.88h19.15M159.98 107.4c-3.08 3.16-7.13 4.8-10.74 4.8-5.74 0-11.06-4.34-11.06-12.31 0-6.85 4.52-12.83 10.53-12.83 3.13 0 6.32 1.17 9.3 4.09l2.82-4.91c-3.4-2.91-7.39-4.24-12.18-4.24-9.94 0-17.65 7.61-17.65 18.4 0 11.29 8.45 17.01 17.23 17.01 4.52 0 9.68-1.79 13.03-4.75l-1.28-5.26M180.75 112.35c-5.64 0-9.41-5.41-9.41-12.72 0-7.31 3.77-12.72 9.41-12.72 5.64 0 9.36 5.41 9.36 12.72 0 7.31-3.72 12.72-9.36 12.72zM164 99.94c0 9.76 5.9 17.37 16.32 17.37 9.68 0 17.13-7.77 17.13-17.99 0-10.11-5.48-17.32-16.43-17.32-9.68 0-17.02 7.77-17.02 17.94zM240.5 83h-4.63l-13.56 20.29L207.48 83H202l.74 5.26v28.88h6.7l-.58-4.4V95.98l1.75 3.32 11.12 14.67 10.31-14.67 1.55-3.27v21.11h7.49l-.58-4.4V83M254.66 102.16h9.89l1.33-5.06h-11.22v-9.04h12.71V83H247l.74 5.26v28.88h18.99l1.33-5.06h-13.4v-9.92M130.75 158.35c-5.64 0-9.41-5.41-9.41-12.72 0-7.31 3.77-12.72 9.41-12.72 5.64 0 9.36 5.41 9.36 12.72 0 7.31-3.72 12.72-9.36 12.72zM114 145.94c0 9.76 5.9 17.37 16.32 17.37 9.68 0 17.13-7.77 17.13-17.99 0-10.12-5.48-17.32-16.43-17.32-9.68 0-17.02 7.77-17.02 17.94zM192.5 128h-4.63l-13.56 20.29L159.48 128H154l.74 5.26v28.87h6.7l-.58-4.39v-16.76l1.75 3.32 11.12 14.67 10.31-14.67 1.55-3.27v21.1h7.49l-.58-4.39V128M210.66 147.16h9.89l1.33-5.06h-11.22v-9.04h12.71V128H203l.74 5.26v28.87h18.99l1.33-5.06h-13.4v-9.91M107.16 128H99.5l.75 5.26v9.6l-8.4-4.08-8.19 3.99V128H76l.74 5.26v28.87h7.5l-.58-4.39v-8.64l8.19-3.99 8.4 4.09v12.93h7.49l-.58-4.39V128"/></svg>